<svg width="1080" height="1080" viewBox="0 0 1080 1080" fill="none" xmlns="http://www.w3.org/2000/svg">
<g clip-path="url(#clip0_438_1678)">
<rect width="1080" height="1080" fill="#0C0C0E"/>
<rect width="83.0769" height="83.0769" fill="#0C0C0E"/>
<rect width="83.0769" height="83.0769" transform="translate(0 83.0771)" fill="#0C0C0E"/>
<rect width="83.0769" height="83.0769" transform="translate(0 166.154)" fill="#0C0C0E"/>
<rect width="83.0769" height="83.0769" transform="translate(0 249.231)" fill="#0C0C0E"/>
<rect width="83.0769" height="83.0769" transform="translate(0 332.308)" fill="#0C0C0E"/>
<rect width="83.0769" height="83.0769" transform="translate(0 415.385)" fill="#0C0C0E"/>
<rect width="83.0769" height="83.0769" transform="translate(0 498.461)" fill="#0C0C0E"/>
<rect width="83.0769" height="83.0769" transform="translate(0 581.539)" fill="#0C0C0E"/>
<rect width="83.0769" height="83.0769" transform="translate(0 664.615)" fill="#0C0C0E"/>
<rect width="83.0769" height="83.0769" transform="translate(0 747.692)" fill="#0C0C0E"/>
<rect width="83.0769" height="83.0769" transform="translate(0 830.769)" fill="#0C0C0E"/>
<rect width="83.0769" height="83.0769" transform="translate(0 913.846)" fill="#0C0C0E"/>
<rect width="83.0769" height="83.0769" transform="translate(0 996.923)" fill="#0C0C0E"/>
<rect width="83.0769" height="83.0769" transform="translate(83.0762)" fill="#0C0C0E"/>
<rect width="83.0769" height="83.0769" transform="translate(83.0762 83.0771)" fill="#0C0C0E"/>
<rect width="83.0769" height="83.0769" transform="translate(83.0762 166.154)" fill="#0C0C0E"/>
<rect width="83.0769" height="83.0769" transform="translate(83.0762 249.231)" fill="#0C0C0E"/>
<rect width="83.0769" height="83.0769" transform="translate(83.0762 332.308)" fill="#0C0C0E"/>
<rect width="83.0769" height="83.0769" transform="translate(83.0762 415.385)" fill="#0C0C0E"/>
<rect width="83.0769" height="83.0769" transform="translate(83.0762 498.461)" fill="#0C0C0E"/>
<rect width="83.0769" height="83.0769" transform="translate(83.0762 581.539)" fill="#0C0C0E"/>
<rect width="83.0769" height="83.0769" transform="translate(83.0762 664.615)" fill="#0C0C0E"/>
<rect width="83.0769" height="83.0769" transform="translate(83.0762 747.692)" fill="#0C0C0E"/>
<rect width="83.0769" height="83.0769" transform="translate(83.0762 830.77)" fill="#0C0C0E"/>
<rect width="83.0769" height="83.0769" transform="translate(83.0762 913.846)" fill="#0C0C0E"/>
<rect width="83.0769" height="83.0769" transform="translate(83.0762 996.923)" fill="#0C0C0E"/>
<rect width="83.0769" height="83.0769" transform="translate(166.154)" fill="#0C0C0E"/>
<rect width="83.0769" height="83.0769" transform="translate(166.154 83.0771)" fill="#0C0C0E"/>
<rect width="83.0769" height="83.0769" transform="translate(166.154 166.154)" fill="#0C0C0E"/>
<rect width="83.0769" height="83.0769" transform="translate(166.154 249.231)" fill="#0C0C0E"/>
<rect width="83.0769" height="83.0769" transform="translate(166.154 332.308)" fill="#0C0C0E"/>
<rect width="83.0769" height="83.0769" transform="translate(166.154 415.385)" fill="#0C0C0E"/>
<rect width="83.0769" height="83.0769" transform="translate(166.154 498.461)" fill="#0C0C0E"/>
<rect width="83.0769" height="83.0769" transform="translate(166.154 581.539)" fill="#0C0C0E"/>
<rect width="83.0769" height="83.0769" transform="translate(166.154 664.615)" fill="#0C0C0E"/>
<rect width="83.0769" height="83.0769" transform="translate(166.154 747.692)" fill="#0C0C0E"/>
<rect width="83.0769" height="83.0769" transform="translate(166.154 830.769)" fill="#0C0C0E"/>
<rect width="83.0769" height="83.0769" transform="translate(166.154 913.846)" fill="#0C0C0E"/>
<rect width="83.0769" height="83.0769" transform="translate(166.154 996.923)" fill="#0C0C0E"/>
<rect width="83.0769" height="83.0769" transform="translate(249.23)" fill="#0C0C0E"/>
<rect width="83.0769" height="83.0769" transform="translate(249.23 83.0771)" fill="#0C0C0E"/>
<rect width="83.0769" height="83.0769" transform="translate(249.23 166.154)" fill="#3B82F6"/>
<rect width="83.0769" height="83.0769" transform="translate(249.23 249.231)" fill="#8B5CF6"/>
<rect width="83.0769" height="83.0769" transform="translate(249.23 332.308)" fill="#06B6D4"/>
<rect width="83.0769" height="83.0769" transform="translate(249.23 415.385)" fill="#EC4899"/>
<rect width="83.0769" height="83.0769" transform="translate(249.23 498.461)" fill="#10B981"/>
<rect width="83.0769" height="83.0769" transform="translate(249.23 581.539)" fill="#F59E0B"/>
<rect width="83.0769" height="83.0769" transform="translate(249.23 664.615)" fill="white"/>
<rect width="83.0769" height="83.0769" transform="translate(249.23 747.692)" fill="#8B5CF6"/>
<rect width="83.0769" height="83.0769" transform="translate(249.23 830.769)" fill="#0C0C0E"/>
<rect width="83.0769" height="83.0769" transform="translate(249.23 913.846)" fill="#0C0C0E"/>
<rect width="83.0769" height="83.0769" transform="translate(249.23 996.923)" fill="#0C0C0E"/>
<rect width="83.0769" height="83.0769" transform="translate(332.309)" fill="#0C0C0E"/>
<rect width="83.0769" height="83.0769" transform="translate(332.309 83.0771)" fill="#0C0C0E"/>
<rect width="83.0769" height="83.0769" transform="translate(332.309 166.154)" fill="#0C0C0E"/>
<rect width="83.0769" height="83.0769" transform="translate(332.309 249.231)" fill="#0C0C0E"/>
<rect width="83.0769" height="83.0769" transform="translate(332.309 332.308)" fill="#0C0C0E"/>
<rect width="83.0769" height="83.0769" transform="translate(332.309 415.385)" fill="#0C0C0E"/>
<rect width="83.0769" height="83.0769" transform="translate(332.309 498.461)" fill="#0C0C0E"/>
<rect width="83.0769" height="83.0769" transform="translate(332.309 581.539)" fill="#0C0C0E"/>
<rect width="83.0769" height="83.0769" transform="translate(332.309 664.615)" fill="#0C0C0E"/>
<rect width="83.0769" height="83.0769" transform="translate(332.309 747.692)" fill="#0C0C0E"/>
<rect width="83.0769" height="83.0769" transform="translate(332.309 830.769)" fill="#EC4899"/>
<rect width="83.0769" height="83.0769" transform="translate(332.309 913.846)" fill="#0C0C0E"/>
<rect width="83.0769" height="83.0769" transform="translate(332.309 996.923)" fill="#0C0C0E"/>
<rect width="83.0769" height="83.0769" transform="translate(415.385)" fill="#0C0C0E"/>
<rect width="83.0769" height="83.0769" transform="translate(415.385 83.0771)" fill="#0C0C0E"/>
<rect width="83.0769" height="83.0769" transform="translate(415.385 166.154)" fill="#0C0C0E"/>
<rect width="83.0769" height="83.0769" transform="translate(415.385 249.231)" fill="#0C0C0E"/>
<rect width="83.0769" height="83.0769" transform="translate(415.385 332.308)" fill="#0C0C0E"/>
<rect width="83.0769" height="83.0769" transform="translate(415.385 415.385)" fill="#0C0C0E"/>
<rect width="83.0769" height="83.0769" transform="translate(415.385 498.461)" fill="#0C0C0E"/>
<rect width="83.0769" height="83.0769" transform="translate(415.385 581.539)" fill="#0C0C0E"/>
<rect width="83.0769" height="83.0769" transform="translate(415.385 664.615)" fill="#3B82F6"/>
<rect width="83.0769" height="83.0769" transform="translate(415.385 747.692)" fill="#06B6D4"/>
<rect width="83.0769" height="83.0769" transform="translate(415.385 830.769)" fill="#0C0C0E"/>
<rect width="83.0769" height="83.0769" transform="translate(415.385 913.846)" fill="#0C0C0E"/>
<rect width="83.0769" height="83.0769" transform="translate(415.385 996.923)" fill="#0C0C0E"/>
<rect width="83.0769" height="83.0769" transform="translate(498.461)" fill="#0C0C0E"/>
<rect width="83.0769" height="83.0769" transform="translate(498.461 83.0771)" fill="#0C0C0E"/>
<rect width="83.0769" height="83.0769" transform="translate(498.461 166.154)" fill="#0C0C0E"/>
<rect width="83.0769" height="83.0769" transform="translate(498.461 249.231)" fill="#0C0C0E"/>
<rect width="83.0769" height="83.0769" transform="translate(498.461 332.308)" fill="#0C0C0E"/>
<rect width="83.0769" height="83.0769" transform="translate(498.461 415.385)" fill="#06B6D4"/>
<rect width="83.0769" height="83.0769" transform="translate(498.461 498.461)" fill="#EC4899"/>
<rect width="83.0769" height="83.0769" transform="translate(498.461 581.539)" fill="#8B5CF6"/>
<rect width="83.0769" height="83.0769" transform="translate(498.461 664.615)" fill="#0C0C0E"/>
<rect width="83.0769" height="83.0769" transform="translate(498.461 747.692)" fill="#0C0C0E"/>
<rect width="83.0769" height="83.0769" transform="translate(498.461 830.769)" fill="#0C0C0E"/>
<rect width="83.0769" height="83.0769" transform="translate(498.461 913.846)" fill="#0C0C0E"/>
<rect width="83.0769" height="83.0769" transform="translate(498.461 996.923)" fill="#0C0C0E"/>
<rect width="83.0769" height="83.0769" transform="translate(581.539)" fill="#0C0C0E"/>
<rect width="83.0769" height="83.0769" transform="translate(581.539 83.0771)" fill="#0C0C0E"/>
<rect width="83.0769" height="83.0769" transform="translate(581.539 166.154)" fill="#0C0C0E"/>
<rect width="83.0769" height="83.0769" transform="translate(581.539 249.231)" fill="#0C0C0E"/>
<rect width="83.0769" height="83.0769" transform="translate(581.539 332.308)" fill="#0C0C0E"/>
<rect width="83.0769" height="83.0769" transform="translate(581.539 415.385)" fill="#0C0C0E"/>
<rect width="83.0769" height="83.0769" transform="translate(581.539 498.461)" fill="#0C0C0E"/>
<rect width="83.0769" height="83.0769" transform="translate(581.539 581.539)" fill="#0C0C0E"/>
<rect width="83.0769" height="83.0769" transform="translate(581.539 664.615)" fill="#F59E0B"/>
<rect width="83.0769" height="83.0769" transform="translate(581.539 747.692)" fill="white"/>
<rect width="83.0769" height="83.0769" transform="translate(581.539 830.769)" fill="#0C0C0E"/>
<rect width="83.0769" height="83.0769" transform="translate(581.539 913.846)" fill="#0C0C0E"/>
<rect width="83.0769" height="83.0769" transform="translate(581.539 996.923)" fill="#0C0C0E"/>
<rect width="83.0769" height="83.0769" transform="translate(664.615)" fill="#0C0C0E"/>
<rect width="83.0769" height="83.0769" transform="translate(664.615 83.0771)" fill="#0C0C0E"/>
<rect width="83.0769" height="83.0769" transform="translate(664.615 166.154)" fill="#0C0C0E"/>
<rect width="83.0769" height="83.0769" transform="translate(664.615 249.231)" fill="#0C0C0E"/>
<rect width="83.0769" height="83.0769" transform="translate(664.615 332.308)" fill="#0C0C0E"/>
<rect width="83.0769" height="83.0769" transform="translate(664.615 415.385)" fill="#0C0C0E"/>
<rect width="83.0769" height="83.0769" transform="translate(664.615 498.461)" fill="#0C0C0E"/>
<rect width="83.0769" height="83.0769" transform="translate(664.615 581.539)" fill="#0C0C0E"/>
<rect width="83.0769" height="83.0769" transform="translate(664.615 664.615)" fill="#0C0C0E"/>
<rect width="83.0769" height="83.0769" transform="translate(664.615 747.692)" fill="#0C0C0E"/>
<rect width="83.0769" height="83.0769" transform="translate(664.615 830.769)" fill="#3B82F6"/>
<rect width="83.0769" height="83.0769" transform="translate(664.615 913.846)" fill="#0C0C0E"/>
<rect width="83.0769" height="83.0769" transform="translate(664.615 996.923)" fill="#0C0C0E"/>
<rect width="83.0769" height="83.0769" transform="translate(747.691)" fill="#0C0C0E"/>
<rect width="83.0769" height="83.0769" transform="translate(747.691 83.0771)" fill="#0C0C0E"/>
<rect width="83.0769" height="83.0769" transform="translate(747.691 166.154)" fill="#8B5CF6"/>
<rect width="83.0769" height="83.0769" transform="translate(747.691 249.231)" fill="#3B82F6"/>
<rect width="83.0769" height="83.0769" transform="translate(747.691 332.308)" fill="#06B6D4"/>
<rect width="83.0769" height="83.0769" transform="translate(747.691 415.385)" fill="#EC4899"/>
<rect width="83.0769" height="83.0769" transform="translate(747.691 498.461)" fill="#10B981"/>
<rect width="83.0769" height="83.0769" transform="translate(747.691 581.539)" fill="#F59E0B"/>
<rect width="83.0769" height="83.0769" transform="translate(747.691 664.615)" fill="white"/>
<rect width="83.0769" height="83.0769" transform="translate(747.691 747.692)" fill="#06B6D4"/>
<rect width="83.0769" height="83.0769" transform="translate(747.691 830.769)" fill="#0C0C0E"/>
<rect width="83.0769" height="83.0769" transform="translate(747.691 913.846)" fill="#0C0C0E"/>
<rect width="83.0769" height="83.0769" transform="translate(747.691 996.923)" fill="#0C0C0E"/>
<rect width="83.0769" height="83.0769" transform="translate(830.77)" fill="#0C0C0E"/>
<rect width="83.0769" height="83.0769" transform="translate(830.77 83.0771)" fill="#0C0C0E"/>
<rect width="83.0769" height="83.0769" transform="translate(830.77 166.154)" fill="#0C0C0E"/>
<rect width="83.0769" height="83.0769" transform="translate(830.77 249.231)" fill="#0C0C0E"/>
<rect width="83.0769" height="83.0769" transform="translate(830.77 332.308)" fill="#0C0C0E"/>
<rect width="83.0769" height="83.0769" transform="translate(830.77 415.385)" fill="#0C0C0E"/>
<rect width="83.0769" height="83.0769" transform="translate(830.77 498.461)" fill="#0C0C0E"/>
<rect width="83.0769" height="83.0769" transform="translate(830.77 581.539)" fill="#0C0C0E"/>
<rect width="83.0769" height="83.0769" transform="translate(830.77 664.615)" fill="#0C0C0E"/>
<rect width="83.0769" height="83.0769" transform="translate(830.77 747.692)" fill="#0C0C0E"/>
<rect width="83.0769" height="83.0769" transform="translate(830.77 830.769)" fill="#0C0C0E"/>
<rect width="83.0769" height="83.0769" transform="translate(830.77 913.846)" fill="#0C0C0E"/>
<rect width="83.0769" height="83.0769" transform="translate(830.77 996.923)" fill="#0C0C0E"/>
<rect width="83.0769" height="83.0769" transform="translate(913.846)" fill="#0C0C0E"/>
<rect width="83.0769" height="83.0769" transform="translate(913.846 83.0771)" fill="#0C0C0E"/>
<rect width="83.0769" height="83.0769" transform="translate(913.846 166.154)" fill="#0C0C0E"/>
<rect width="83.0769" height="83.0769" transform="translate(913.846 249.231)" fill="#0C0C0E"/>
<rect width="83.0769" height="83.0769" transform="translate(913.846 332.308)" fill="#0C0C0E"/>
<rect width="83.0769" height="83.0769" transform="translate(913.846 415.385)" fill="#0C0C0E"/>
<rect width="83.0769" height="83.0769" transform="translate(913.846 498.461)" fill="#0C0C0E"/>
<rect width="83.0769" height="83.0769" transform="translate(913.846 581.539)" fill="#0C0C0E"/>
<rect width="83.0769" height="83.0769" transform="translate(913.846 664.615)" fill="#0C0C0E"/>
<rect width="83.0769" height="83.0769" transform="translate(913.846 747.692)" fill="#0C0C0E"/>
<rect width="83.0769" height="83.0769" transform="translate(913.846 830.769)" fill="#0C0C0E"/>
<rect width="83.0769" height="83.0769" transform="translate(913.846 913.846)" fill="#0C0C0E"/>
<rect width="83.0769" height="83.0769" transform="translate(913.846 996.923)" fill="#0C0C0E"/>
<rect width="83.0769" height="83.0769" transform="translate(996.924)" fill="#0C0C0E"/>
<rect width="83.0769" height="83.0769" transform="translate(996.924 83.0771)" fill="#0C0C0E"/>
<rect width="83.0769" height="83.0769" transform="translate(996.924 166.154)" fill="#0C0C0E"/>
<rect width="83.0769" height="83.0769" transform="translate(996.924 249.231)" fill="#0C0C0E"/>
<rect width="83.0769" height="83.0769" transform="translate(996.924 332.308)" fill="#0C0C0E"/>
<rect width="83.0769" height="83.0769" transform="translate(996.924 415.385)" fill="#0C0C0E"/>
<rect width="83.0769" height="83.0769" transform="translate(996.924 498.461)" fill="#0C0C0E"/>
<rect width="83.0769" height="83.0769" transform="translate(996.924 581.539)" fill="#0C0C0E"/>
<rect width="83.0769" height="83.0769" transform="translate(996.924 664.615)" fill="#0C0C0E"/>
<rect width="83.0769" height="83.0769" transform="translate(996.924 747.692)" fill="#0C0C0E"/>
<rect width="83.0769" height="83.0769" transform="translate(996.924 830.769)" fill="#0C0C0E"/>
<rect width="83.0769" height="83.0769" transform="translate(996.924 913.846)" fill="#0C0C0E"/>
<rect width="83.0769" height="83.0769" transform="translate(996.924 996.923)" fill="#0C0C0E"/>
</g>
<defs>
<clipPath id="clip0_438_1678">
<rect width="1080" height="1080" fill="white"/>
</clipPath>
</defs>
</svg>
